<svg xmlns="http://www.w3.org/2000/svg" xmlns:xlink="http://www.w3.org/1999/xlink" viewBox="0 0 164.28 559.13"><defs><style>.\36 469e95c-88bd-44e1-98a9-b6f1cde2eae0{fill:none;}.\36 67b94ac-c687-4698-a646-9a5d7200d045{clip-path:url(#9a60f628-e869-4897-92ca-42d7dbe8460f);}</style><clipPath id="9a60f628-e869-4897-92ca-42d7dbe8460f" transform="translate(0 0)"><rect class="6469e95c-88bd-44e1-98a9-b6f1cde2eae0" width="164.28" height="559.13"/></clipPath></defs><title>Fichier 1</title><g id="4057f6a4-eebe-483f-921a-f9a24b415686" data-name="Calque 2"><g id="2e7877fe-815d-4942-b200-f546566a3f37" data-name="Calque 1"><g id="00a3c457-c642-4901-aad6-b31a0023cfa5" data-name="Objet dynamique vectoriel"><g class="667b94ac-c687-4698-a646-9a5d7200d045"><g class="667b94ac-c687-4698-a646-9a5d7200d045"><path d="M149.16,0c2.19,12.58,4.72,24.4,6.21,36.35,3.16,25.35,7.15,50.71,8.32,76.18,2.11,46.32-1.31,92.42-12.1,137.67a404.58,404.58,0,0,1-13.9,47c-16.49,44.35-41,84.13-71.17,120.47-7.4,8.91-15.18,17.52-22.76,26.28-.84,1-1.51,2.08-2.26,3.13l-1.45-.66c0-13.39-.29-26.79.07-40.17A510.92,510.92,0,0,1,49.55,323C59,274.17,72.94,226.57,89.78,179.86c11.18-31,23.62-61.61,35.51-92.38a4.14,4.14,0,0,1,1.41-2c-.86,2.59-1.67,5.19-2.59,7.77C111.88,127.7,99,162,87.62,196.72A614.17,614.17,0,0,0,71,260C60,311.36,52.35,363.2,53.38,416c0,1.29,0,2.57,0,4.77,1.23-1.51,1.9-2.24,2.49-3.05a474.5,474.5,0,0,0,53.31-93.93c5.55-13.2,10.35-26.74,15-40.29,12.57-36.43,19.45-74.05,22.87-112.36.93-10.49-3.88-14.8-14.34-13-.64.11-1.27.3-2.54.61a24,24,0,0,1,1.61-2c11.85-11.25,16.61-25.18,16.32-41.34-.43-24.52-5.81-48.2-11.21-72.32a13.75,13.75,0,0,0-1.37,1.26C102,88,73.56,134.73,55.17,187.06A550,550,0,0,0,34.59,262.9C28,296.29,22.55,329.84,21.37,364c-1.66,48.2,3.54,95.75,13.22,142.87,3.45,16.81,7.52,33.49,11.3,50.24a2.56,2.56,0,0,1-.32,2.06c-2-5-4-10-6-15C25,506.44,12.69,468.1,5.85,428.17A389.41,389.41,0,0,1,2.67,315.58C14.56,215.77,53.25,127.06,112.84,46.89c11-14.86,22.47-29.42,33.74-44.11C147.19,2,148,1.29,149.16,0" transform="translate(0 0)"/></g></g></g></g></g></svg>